<?xml version="1.0" encoding="UTF-8"?>
<svg id="Capa_1" data-name="Capa 1" xmlns="http://www.w3.org/2000/svg" xmlns:xlink="http://www.w3.org/1999/xlink" viewBox="0 0 484.98 187.19">
  <defs>
    <style>
      .cls-1 {
        letter-spacing: .13em;
      }

      .cls-2 {
        fill: url(#Degradado_sin_nombre_257);
      }

      .cls-3 {
        letter-spacing: .11em;
      }

      .cls-4 {
        letter-spacing: .1em;
      }

      .cls-5 {
        fill: url(#Degradado_sin_nombre_55);
      }

      .cls-6 {
        letter-spacing: .12em;
      }

      .cls-7 {
        fill: url(#Degradado_sin_nombre_49);
      }

      .cls-8 {
        fill: url(#Degradado_sin_nombre_17);
      }

      .cls-9 {
        letter-spacing: .12em;
      }

      .cls-10 {
        fill: url(#Degradado_sin_nombre_81);
      }

      .cls-11 {
        letter-spacing: .13em;
      }

      .cls-12 {
        fill: #20bdff;
        font-family: AncizarSans-Extrabold, 'Ancizar Sans';
        font-size: 21.36px;
        font-weight: 700;
      }
    </style>
    <linearGradient id="Degradado_sin_nombre_17" data-name="Degradado sin nombre 17" x1="84.87" y1="104.95" x2="415.15" y2="104.95" gradientTransform="translate(-85.21 -33.1)" gradientUnits="userSpaceOnUse">
      <stop offset="0" stop-color="#93f9b9"/>
      <stop offset="1" stop-color="#0099db"/>
    </linearGradient>
    <linearGradient id="Degradado_sin_nombre_49" data-name="Degradado sin nombre 49" x1="349.4" y1="83.51" x2="421.14" y2="27.67" gradientUnits="userSpaceOnUse">
      <stop offset="0" stop-color="#01feca"/>
      <stop offset="1" stop-color="#01ebcd"/>
    </linearGradient>
    <linearGradient id="Degradado_sin_nombre_55" data-name="Degradado sin nombre 55" x1="353.57" y1="79.31" x2="396.11" y2="98.55" gradientUnits="userSpaceOnUse">
      <stop offset="0" stop-color="#01facb"/>
      <stop offset="1" stop-color="#80a4d1"/>
    </linearGradient>
    <linearGradient id="Degradado_sin_nombre_81" data-name="Degradado sin nombre 81" x1="413.62" y1="106.01" x2="488.21" y2="54.03" gradientUnits="userSpaceOnUse">
      <stop offset="0" stop-color="#0097dc"/>
      <stop offset="1" stop-color="#0155b2"/>
    </linearGradient>
    <linearGradient id="Degradado_sin_nombre_257" data-name="Degradado sin nombre 257" x1="432.32" y1="38.5" x2="449.17" y2="58.31" gradientUnits="userSpaceOnUse">
      <stop offset="0" stop-color="#00b3d7"/>
      <stop offset="1" stop-color="#007fe0"/>
    </linearGradient>
  </defs>
  <g>
    <path class="cls-8" d="M93.68,6.25c9.21,4.17,16.3,10.08,21.28,17.75,4.97,7.66,7.46,16.74,7.46,27.23s-2.49,19.4-7.46,27.13c-4.98,7.73-12.07,13.65-21.28,17.75-9.21,4.1-20.07,6.15-32.57,6.15h-28.44v38.92H0V0H61.11c12.5,0,23.36,2.09,32.57,6.25Zm-12,63.03c5.11-4.23,7.66-10.25,7.66-18.05s-2.56-14.02-7.66-18.25c-5.11-4.23-12.57-6.35-22.39-6.35h-26.62v49.01h26.62c9.81,0,17.28-2.12,22.39-6.35Z"/>
    <path class="cls-8" d="M130.58,0h26.47V114.55h57.35v26.62h-83.82V0Z"/>
    <path class="cls-8" d="M316.77,43.98c9.01,8,13.51,20.07,13.51,36.2v61.92h-29.44v-13.51c-5.92,10.08-16.94,15.13-33.08,15.13-8.34,0-15.56-1.41-21.68-4.23-6.12-2.82-10.79-6.72-14.02-11.7-3.23-4.97-4.84-10.62-4.84-16.94,0-10.08,3.8-18.01,11.4-23.8,7.59-5.78,19.33-8.67,35.19-8.67h25.01c0-6.86-2.09-12.13-6.25-15.83-4.17-3.7-10.42-5.55-18.76-5.55-5.78,0-11.46,.91-17.04,2.72-5.58,1.82-10.32,4.27-14.22,7.36l-11.29-21.98c5.91-4.17,13.01-7.39,21.28-9.68,8.27-2.28,16.77-3.43,25.51-3.43,16.8,0,29.71,4,38.72,12Zm-26.82,74.82c4.17-2.49,7.12-6.15,8.87-10.99v-11.09h-21.58c-12.91,0-19.36,4.24-19.36,12.71,0,4.03,1.58,7.23,4.74,9.58,3.16,2.35,7.49,3.53,13.01,3.53s10.15-1.24,14.32-3.73Z"/>
  </g>
  <g>
    <polygon class="cls-7" points="432.22 0 341.31 64.21 367.47 90.38 432.22 44.64 432.22 0"/>
    <polygon class="cls-5" points="367.47 90.38 383.12 106.03 383.12 79.32 367.47 90.38"/>
  </g>
  <polygon class="cls-10" points="392.45 143.39 483.36 79.18 457.19 53.01 392.45 98.74 392.45 143.39"/>
  <polygon class="cls-2" points="457.19 53.01 441.54 37.36 441.54 64.07 457.19 53.01"/>
  <text class="cls-12" transform="translate(0 176.61)"><tspan class="cls-1" x="0" y="0">PROG</tspan><tspan class="cls-3" x="62.37" y="0">R</tspan><tspan class="cls-1" x="76.94" y="0">AMMI</tspan><tspan class="cls-6" x="144.06" y="0">N</tspan><tspan class="cls-11" x="160.7" y="0">G </tspan><tspan class="cls-3" x="183.9" y="0">L</tspan><tspan class="cls-1" x="196.46" y="0">A</tspan><tspan class="cls-9" x="211.99" y="0">N</tspan><tspan class="cls-1" x="228.63" y="0">GUAGES AND </tspan><tspan class="cls-3" x="382.81" y="0">SY</tspan><tspan class="cls-4" x="410.13" y="0">S</tspan><tspan class="cls-1" x="422.9" y="0">TEMS</tspan></text>
</svg>